<svg xmlns="http://www.w3.org/2000/svg" viewBox="0 0 512 512" width="512" height="512">
  <rect width="512" height="512" rx="112" fill="#0b0c10"/>
  <g transform="translate(72 72) scale(5.75)">
    <circle cx="16" cy="15" r="10" fill="#171820"/>
    <circle cx="48" cy="15" r="10" fill="#171820"/>
    <rect x="11" y="12" width="42" height="42" rx="20" fill="#f7f5ff"/>
    <ellipse cx="22" cy="30" rx="8" ry="11" transform="rotate(28 22 30)" fill="#171820"/>
    <ellipse cx="42" cy="30" rx="8" ry="11" transform="rotate(-28 42 30)" fill="#171820"/>
    <circle cx="24" cy="29" r="2.4" fill="#f7f5ff"/>
    <circle cx="40" cy="29" r="2.4" fill="#f7f5ff"/>
    <path d="M29 39c1.8-2.2 4.2-2.2 6 0-1 3.4-5 4.1-6 0Z" fill="#171820"/>
    <path d="M32 42v3" stroke="#171820" stroke-width="2" stroke-linecap="round"/>
    <circle cx="18" cy="40" r="3" fill="#d9ccff"/>
    <circle cx="46" cy="40" r="3" fill="#d9ccff"/>
  </g>
</svg>